<svg xmlns="http://www.w3.org/2000/svg" viewBox="0 0 64 64" width="64" height="64">
  <circle cx="32" cy="32" r="30" fill="#f2a900"/>
  <path d="M46.1 27.4c.6-4.3-2.6-6.6-7.1-8.1l1.4-5.8h-3.6l-1.4 5.6c-.9-.2-1.9-.5-2.8-.7l1.4-5.8h-3.6l-1.4 5.8c-.8-.2-1.5-.3-2.3-.5l0 0-5-.1v3.6c.7 0 1.3-.1 1.7.1 1 .2 1.3.9 1.2 1.7L23 37.1c.1.1.2.2.3.2-.2.1-.4.1-.6.1-.2 0-.6-.3-.8-.9l-2.4-9.6-3.8.9 1.4 5.8c.8.2 1.6.4 2.4.6l-1.4 5.8h3.6l1.4-5.8c1 .3 1.9.5 2.8.7l-1.4 5.8h3.6l1.5-5.9c6.1 1.2 10.7.7 12.6-4.8 1.5-4.4-.1-7-3.3-8.7 2.4-1.1 4.1-3.1 3.7-7.8zm-6.8 11.2c-1.1 4.5-8.7 2.1-11.2 1.5l2-8.1c2.5.6 10.3 1.8 9.2 6.6zm1.1-11.3c-1 4.1-7.3 2-9.4 1.5l1.8-7.4c2.1.5 8.6 1.5 7.6 5.9z" fill="#ffffff"/>
</svg>
